<?xml version="1.0" standalone="no"?>
<!DOCTYPE svg PUBLIC "-//W3C//DTD SVG 1.1//EN" "http://www.w3.org/Graphics/SVG/1.1/DTD/svg11.dtd" >
<!--
2013-9-30: Created.
-->
<svg>
<metadata>
Created by iconfont
</metadata>
<defs>

<font id="iconfont" horiz-adv-x="1024" >
  <font-face
    font-family="iconfont"
    font-weight="500"
    font-stretch="normal"
    units-per-em="1024"
    ascent="896"
    descent="-128"
  />
    <missing-glyph />
    
    <glyph glyph-name="xiazai" unicode="&#58920;" d="M113.790609 270.228638v-227.542724a56.895305 56.895305 0 0 1 56.895305-56.895305h682.628172a56.895305 56.895305 0 0 1 56.895305 56.895305v227.542724H1023.961505v-284.438029a113.790609 113.790609 0 0 0-113.790609-113.790609H113.790609A113.790609 113.790609 0 0 0 0-14.209391v284.438029z m0 0zM455.123943 280.083305V839.104695a56.895305 56.895305 0 0 0 113.790609 0V280.083305l144.278486 144.201496a56.895305 56.895305 0 1 0 80.454118-80.454118l-230.121875-230.121875a56.895305 56.895305 0 0 0-90.116311-12.895756l-241.362355 241.362355a56.895305 56.895305 0 1 0 80.454118 80.454118L455.123943 280.083305zM56.895305 327.123943A56.895305 56.895305 0 1 0 0 270.228638a56.895305 56.895305 0 0 0 56.895305 56.895305z m910.20939 0a56.895305 56.895305 0 1 0-56.895304-56.895305 56.895305 56.895305 0 0 0 56.895304 56.895305z"  horiz-adv-x="1024" />

    
    <glyph glyph-name="weibo" unicode="&#58919;" d="M950.480877 407.323045c-18.246179 5.191381-31.300977 7.634385-20.918214 31.300976a131.845821 131.845821 0 0 1 0 125.356595c-41.760084 60.082606-154.06188 57.410572-282.014165 2.595691 0 0-41.760084-18.246179-31.300977 13.054797a139.327518 139.327518 0 0 1-13.054798 146.198464c-70.465369 70.465369-255.90457-2.595691-415.157831-161.925296C67.946023 443.815403 0 318.458809 0 208.829046 0-0.047715 268.959368-128 530.055319-128c344.692463 0 571.815403 201.089689 574.411094 362.938642a191.852084 191.852084 0 0 1-154.06188 172.308059z m-417.753523-459.58995c-208.876761-20.918214-389.353612 73.137404-402.103034 211.472452-15.650488 135.815701 143.602773 263.691642 352.479534 284.609856s389.353612-73.137404 402.103035-211.472452c15.650488-135.739357-143.602773-263.615299-352.555879-284.533512z m20.918214 391.643927A228.420786 228.420786 0 0 1 297.740998 227.075226a155.741445 155.741445 0 0 1 99.246999-221.931559 224.14553 224.14553 0 0 1 268.959367 114.515768 156.504883 156.504883 0 0 1-112.37814 220.022963z m-75.733095-229.794975a80.695445 80.695445 0 0 0-96.574965-31.300976 57.868635 57.868635 0 0 0-20.918213 86.192201 80.542757 80.542757 0 0 0 93.979274 31.300977 60.311638 60.311638 0 0 0 23.513904-86.192202z m67.869679 86.192202a30.003131 30.003131 0 0 0-36.568702-13.054798 20.460151 20.460151 0 0 0-10.459107 31.300977 25.880564 25.880564 0 0 0 33.973011 13.054798 22.903154 22.903154 0 0 0 12.978454-31.224633z m459.58995 342.020428a86.344889 86.344889 0 0 1-15.650489 78.328785 77.641691 77.641691 0 0 1-75.733094 23.513905 41.454708 41.454708 0 0 0-18.246179 80.924476 162.077984 162.077984 0 0 0 188.034891-208.876761 41.989115 41.989115 0 0 0-52.21919-26.109596 39.851487 39.851487 0 0 0-26.109595 52.219191z m242.849772-78.328786a48.020279 48.020279 0 1 0-91.612614 28.705286 232.619697 232.619697 0 0 1-49.6235 232.390666 236.665921 236.665921 0 0 1-227.199284 73.137404 48.172967 48.172967 0 0 0-20.918214 93.979274 333.775293 333.775293 0 0 0 389.353612-428.21263z"  horiz-adv-x="1265" />

    
    <glyph glyph-name="QQkongjian" unicode="&#58916;" d="M1077.908756 505.546745c-9.95287 28.641354-372.337599 53.988952-372.337599 53.988952s-134.041536 336.535907-166.406265 336.535906-166.477869-336.535907-166.477869-336.535906-360.73785-25.347598-372.337598-53.988952 269.371932-261.92518 269.371932-261.92518-82.916719-354.293546-63.583806-369.83148 332.884134 174.640654 332.884134 174.640654 311.188309-196.7661 332.955738-174.640654c16.039158 16.253968-26.994476 215.38298-50.12237 316.057338-0.716034 3.222152-121.725753-13.461436-255.767289-14.320677-119.076428-0.787637-251.900706 7.160338-251.900706 7.160339l310.042655 230.204881S527.851557 430.434795 454.672898 437.022306c-104.540941 9.380043-196.193273 9.236837-184.808335 12.100972a1620.599399 1620.599399 0 0 0 269.371932 12.100972 1832.61702 1832.61702 0 0 0 225.479058-24.13034l-310.042655-220.538424s67.736802-10.454094 123.945459-12.602196c107.405077-4.081393 237.723236-1.145654 237.436822 0-4.00979 16.898399-7.160338 39.525068-7.160338 39.525068s279.253199 233.427033 269.371932 261.92518z m0 0"  horiz-adv-x="1078" />

    
    <glyph glyph-name="weixinshixin" unicode="&#58917;" d="M1257.134706 239.338629c0 177.942616-178.025612 322.852975-377.962069 322.852974-211.721835 0-378.460042-145.076349-378.460042-322.852974s166.738207-322.852975 378.460042-322.852975a561.88037 561.88037 0 0 1 133.539958 22.325823l122.003566-66.396499-33.198249 111.13114a337.211217 337.211217 0 0 1 155.616794 255.792511z m-494.985897 49.797374a50.378343 50.378343 0 1 0 50.378343 50.378343 50.378343 50.378343 0 0 0-50.378343-50.793322z m244.837088 0a50.378343 50.378343 0 1 0 50.378344 50.378343 50.378343 50.378343 0 0 0-50.295348-50.378343zM444.939536 896C200.351435 896 0 729.261793 0 517.539958a365.180742 365.180742 0 0 1 178.025612-300.444156l-44.485654-133.788945 155.533798 78.015886a764.804669 764.804669 0 0 1 155.86578-22.325823c14.02626 0 27.886529 0.663965 41.497812 1.742908a331.152537 331.152537 0 0 0-13.777273 93.287081 364.516777 364.516777 0 0 0 378.29405 352.233425 370.741449 370.741449 0 0 0 42.825742-2.65586C855.435889 763.207003 663.964986 896 444.939536 896z m-149.392122-305.340898a60.503809 60.503809 0 1 0 60.50381 60.503809 60.503809 60.503809 0 0 0-60.50381-60.503809z m310.735614 0a60.503809 60.503809 0 1 0 60.503809 60.503809 60.503809 60.503809 0 0 0-60.918787-60.503809z"  horiz-adv-x="1257" />

    
    <glyph glyph-name="qq" unicode="&#58918;" d="M153.650369 435.237138a78.783728 78.783728 0 0 0-4.508262 29.562374 82.035589 82.035589 0 0 0 6.282004 28.01035 94.599598 94.599598 0 0 0 13.672598 25.719266 99.033954 99.033954 0 0 0 4.286545 30.301433 49.590883 49.590883 0 0 0 12.859632 24.610677 313.730698 313.730698 0 0 0 52.91665 164.884143A304.861986 304.861986 0 0 0 363.395415 858.200809a426.954592 426.954592 0 0 0 185.134369 37.765933 394.731604 394.731604 0 0 0 151.950605-31.483928 326.959861 326.959861 0 0 0 51.734155-27.419103 280.842557 280.842557 0 0 0 40.574359-32.00127 215.214085 215.214085 0 0 0 31.483928-38.800616 412.469028 412.469028 0 0 0 24.019429-42.274196 354.748492 354.748492 0 0 0 18.55039-48.260576q8.868712-28.232068 14.781188-51.142907t12.564009-56.0207l0.591247-2.882331a159.48901 159.48901 0 0 0 31.483929-85.730886 76.640456 76.640456 0 0 0-5.09951-22.836934 76.19702 76.19702 0 0 1-5.099509-21.728345 4.656074 4.656074 0 0 1 0.886871-1.995461l1.99546-2.882331a6.134193 6.134193 0 0 0 1.182495-1.99546 760.565987 760.565987 0 0 0 68.806427-122.609948 298.432169 298.432169 0 0 0 24.241146-119.431993 180.182672 180.182672 0 0 0-11.08589-57.129288q-11.08589-32.518612-31.779552-32.518612a19.437261 19.437261 0 0 0-11.085891 4.286544 60.159432 60.159432 0 0 0-10.790266 10.051208 155.202465 155.202465 0 0 0-10.790267 14.781187q-5.986381 9.164336-9.164336 14.781187l-7.390594 14.781187-5.099509 10.051208a2.291084 2.291084 0 0 1-1.699837 0.591247l-2.882331-2.291084a345.288533 345.288533 0 0 0-75.384055-127.413834 118.249497 118.249497 0 0 1 35.10532-22.17178 169.983653 169.983653 0 0 0 39.391863-23.723806 61.120209 61.120209 0 0 0 20.250227-36.952968 35.622661 35.622661 0 0 1-2.291084-9.164336 20.841474 20.841474 0 0 0-3.990921-10.346831q-36.583438-55.429452-172.57036-55.429452a409.956227 409.956227 0 0 0-63.115669 5.09951 528.796972 528.796972 0 0 0-56.0207 11.381514q-23.206464 6.282005-59.715996 17.146177-8.573089 2.882332-13.155257 3.990921a113.445612 113.445612 0 0 1-26.236607 2.586707q-18.254766 0-22.836934 0.886872a137.612853 137.612853 0 0 0-72.871253-36.952968 427.398027 427.398027 0 0 0-96.077717-11.381514q-19.954603 0-39.391863 0.886871t-53.138368 5.099509a339.449964 339.449964 0 0 0-57.720536 11.677138 123.718537 123.718537 0 0 0-42.569819 22.836934 46.117304 46.117304 0 0 0-18.55039 36.583439 77.896856 77.896856 0 0 0 5.690757 33.99673 112.706552 112.706552 0 0 0 23.428181 27.714726 169.983653 169.983653 0 0 1 23.132558 7.390594 98.368801 98.368801 0 0 0 28.305974 6.873252 46.930269 46.930269 0 0 1 7.981841 1.182495 3.325767 3.325767 0 0 1 1.182495 2.291084l-1.182495 1.699836q-27.419102 6.282005-61.711457 60.233338a289.932987 289.932987 0 0 0-41.682947 89.426183l-2.882332 1.699836q-2.291084 0-6.873252-11.381514a127.709457 127.709457 0 0 0-31.188305-42.569819 75.901396 75.901396 0 0 0-44.343562-21.432722H29.78402a3.695297 3.695297 0 0 0-3.473579 2.586708 5.395133 5.395133 0 0 1-2.882331 3.177955 146.555471 146.555471 0 0 0-13.155257 57.129289 324.816588 324.816588 0 0 0 144.042669 266.061369z"  horiz-adv-x="1024" />

    
    <glyph glyph-name="fenxiang" unicode="&#58914;" d="M474.24 394.432a237.12 237.12 0 1 1-237.12-237.12A237.12 237.12 0 0 1 474.24 394.432zM237.12 394.432l648.064-344.576zM237.12 394.496l651.904 323.712zM1066.88 718.016a177.856 177.856 0 1 1-177.856-177.856 177.92 177.92 0 0 1 177.856 177.856zM1063.04 49.856A177.856 177.856 0 1 1 885.184-128a177.92 177.92 0 0 1 177.856 177.856zM744.96 74.688l39.616 72.96-338.688 184-39.616-72.96zM774.592 608.192l-36.352 74.624L412.416 524.16l36.352-74.624z"  horiz-adv-x="1066" />

    
    <glyph glyph-name="dayin" unicode="&#58915;" d="M257.219877 830.997958h511.941911v-127.331972h62.446109v127.796687a63.898344 63.898344 0 0 1-63.433629 64.537327h-511.186748a64.885863 64.885863 0 0 1-64.421148-64.537327v-127.796687h64.943952V830.997958zM959.869299 638.663944H64.885863A63.898344 63.898344 0 0 1 0 575.636941v-319.491717a65.118221 65.118221 0 0 1 64.885863-64.30497H192.275925v-255.535285a64.653506 64.653506 0 0 1 64.421148-64.304969h511.186748a63.898344 63.898344 0 0 1 63.665986 64.304969v255.593375h128.319492a64.24688 64.24688 0 0 1 63.898343 64.304969v319.491718a63.085092 63.085092 0 0 1-63.898343 63.027002zM769.103699-62.997958H257.161788V384h511.941911v-446.997958z m126.809167 510.780123a63.898344 63.898344 0 1 0 63.898343 63.898343 63.898344 63.898344 0 0 0-63.898343-63.898343zM319.607897 319.056047H576.827774v-62.446108H319.607897V319.056047zM319.607897 191.724075h384.551849v-64.943952h-384.551849v64.943952zM319.607897 64.392103h384.551849v-64.943952h-384.551849v64.943952z"  horiz-adv-x="1024" />

    
    <glyph glyph-name="iconfontzhizuobiaozhun023135" unicode="&#59017;" d="M1023.516488 815.945733 943.948291 895.512906 512.002558 463.568197 80.054779 895.514953 0.485559 815.947779 432.432315 384 0.487605-47.944709 80.054779-127.514953 512.002558 304.431803 943.948291-127.514953 1023.514441-47.944709 591.570755 384Z"  horiz-adv-x="1024" />

    
    <glyph glyph-name="shijian" unicode="&#58913;" d="M512.003583-127.828794a511.913117 511.913117 0 1 0 266.365458 949.001601 31.084502 31.084502 0 0 0-32.421164-53.039887A449.744113 449.744113 0 1 1 961.633937 383.913686c0 14.418886-0.73943 28.951531-2.104531 43.228219a31.084502 31.084502 0 0 0 61.856168 5.972319c1.47886-16.267461 2.360488-32.790879 2.360488-49.200538a511.230566 511.230566 0 0 0-511.913117-511.913117zM741.027823 383.373333h-233.688337a31.056062 31.056062 0 1 1 0-62.112125h233.688337a31.056062 31.056062 0 0 1 0 62.112125zM507.311046 631.196161a31.283579 31.283579 0 0 1-31.056062-31.056063v-247.851267a31.056062 31.056062 0 1 1 62.112124 0v247.851267a31.283579 31.283579 0 0 1-31.056062 31.056063z m443.99931 67.202816L898.640184 869.463277a37.284339 37.284339 0 0 1-65.41112 11.546485l-126.357221-167.082754a37.284339 37.284339 0 0 1 28.95153-59.723196l179.027393-3.981547a37.227459 37.227459 0 0 1 36.45959 48.205152zM509.301819 28.276268a31.283579 31.283579 0 0 1-31.056062-31.056063v-14.219809a31.056062 31.056062 0 0 1 62.112125 0v14.219809a31.056062 31.056062 0 0 1-31.056063 31.056063z m-1.251343 783.909619a31.283579 31.283579 0 0 1-31.056062-31.056062v-14.219809a31.056062 31.056062 0 1 1 62.112124 0v14.219809a31.056062 31.056062 0 0 1-30.913864 31.084502zM130.770509 379.619304h-14.219809a31.056062 31.056062 0 1 1 0-62.112125h14.219809a31.056062 31.056062 0 0 1 0 62.112125z m773.955753 0h-15.528031a31.056062 31.056062 0 0 1 0-62.112125h15.528031a31.056062 31.056062 0 1 1 0 62.112125z"  horiz-adv-x="1024" />

    
    <glyph glyph-name="shouye-xuanzhong" unicode="&#58905;" d="M570.184019 874.74735a82.085134 82.085134 0 0 1-110.221233 0L14.087352 451.415213a41.12861 41.12861 0 1 1 55.067595-61.090614l7.055536 6.711363v-441.831407a82.25722 82.25722 0 0 1 82.25722-82.343263h239.371952V120.321297a57.907018 57.907018 0 0 0 57.907018 57.993061H568.377114a57.907018 57.907018 0 0 0 57.907018-57.993061v-247.632092h245.050798a82.25722 82.25722 0 0 1 82.25722 82.343264V391.44316a41.12861 41.12861 0 1 1 56.444285 59.799966L570.011933 874.575264z"  horiz-adv-x="1024" />

    
    <glyph glyph-name="icon4-copy" unicode="&#58987;" d="M1023.39522602 161.01185799999996L511.699148 672.713053 0 161.01390501000003 61.405535 99.60836999000003 511.699148 549.904029 961.994808 99.61041599999999Z"  horiz-adv-x="1024" />

    
    <glyph glyph-name="xuexiaomingcheng" unicode="&#58922;" d="M147.91111111 578.18074112v-582.54222222h728.17777778V578.18074112h-728.17777778z m-48.54518556 48.54518443h825.2681489v-679.63259222h-825.2681489V626.72592555zM26.54814777-4.361481099999992h970.90370446v-48.54518557H26.54814777zM26.54814777 626.72592555h970.90370446v-48.54518443H26.54814777zM366.36444445 432.54518557h48.54518556v-339.81629668H366.36444445zM609.09036999 432.54518557h48.54518556v-339.81629668h-48.54518556zM26.54814777 625.6579322299999l485.30621668 247.48335332-0.19418112-52.8171611L26.54814777 577.11274667zM997.30621667 626.4832L512 873.14128555l-0.19418112-52.8171611 485.50039779-242.38611002z"  horiz-adv-x="1024" />

    
    <glyph glyph-name="xinwen1" unicode="&#58904;" d="M935.651971 678.792409h-70.558832V749.127007A147.097226 147.097226 0 0 1 718.220146 896H146.872993A147.097226 147.097226 0 0 1 0 749.127007v-681.333722A196.017518 196.017518 0 0 1 195.793285-128h695.124087a145.452847 145.452847 0 0 1 145.265986 145.265985V578.335766a100.531387 100.531387 0 0 1-100.531387 100.456643zM658.088175-63.345985H195.905401a131.326131 131.326131 0 0 0-131.13927 131.13927V749.014891a82.218978 82.218978 0 0 0 82.218978 82.218978h571.235037a82.218978 82.218978 0 0 0 82.218978-82.218978v-687.350657a125.234453 125.234453 0 0 0-125.122336-125.122336h-17.116496zM971.678832 17.153869a80.76146 80.76146 0 0 0-80.611971-80.611971h-73.287007a189.402628 189.402628 0 0 1 47.313285 125.271825V614.026277h70.558832A35.877372 35.877372 0 0 0 971.678832 578.335766v-561.181897zM635.365839 625.723796H229.652555a32.401752 32.401752 0 1 1 0-64.766132h405.601168a32.401752 32.401752 0 0 1 0 64.766132z m0-222.738687H229.652555a32.401752 32.401752 0 1 1 0-64.766131h405.601168a32.401752 32.401752 0 0 1 0 64.766131z m0-196.279124H229.652555a32.401752 32.401752 0 1 1 0-64.766131h405.601168a32.401752 32.401752 0 0 1 0 64.766131z"  horiz-adv-x="1036" />

    
    <glyph glyph-name="biaoshilei_renlianmingdan" unicode="&#58906;" d="M447.936718 386.978949v-68.524998A416.163148 416.163148 0 0 1 64.00609-64.029214H0a479.922111 479.922111 0 0 0 332.422142 424.953836A287.480193 287.480193 0 1 0 766.096057 607.875862a282.431726 282.431726 0 0 0-17.263639-95.991482h-69.019253a221.673601 221.673601 0 0 1 22.453322 95.991482 223.968359 223.968359 0 1 1-254.188553-220.896913zM1023.815007 447.87829H511.907504V-128H1023.815007zM575.913594 383.907504h383.930627v-447.936718H575.913594z m319.959841-64.00609h-255.953752v-64.00609h255.953752z m0-127.976876h-255.953752v-63.970786h255.953752z m-128.01218-127.976876h-127.976875v-64.00609h127.976875z"  horiz-adv-x="1024" />

    
    <glyph glyph-name="tuxiang_images19" unicode="&#58907;" d="M51.182848 793.592213h1023.993686v-51.182848H51.182848zM102.407787 896h921.585899v-51.182848H102.407787zM763.323146 293.633441a13.8059 13.8059 0 0 1-19.867026 3.872387l-141.468382-99.461406a6.734585 6.734585 0 0 0-9.765148 2.146649L425.499514 488.136681c-3.99866 6.945041-10.396516 7.029223-14.142629 0L102.281513-5.466326c-3.746113-7.239679-0.294638-13.006168 7.6185-13.006168h903.991795c7.660591 0 10.817428 5.513942 6.439948 12.332709zM819.178113 512.002368a76.816363 76.816363 0 1 1 76.816363 76.816363 76.816363 76.816363 0 0 1-76.816363-76.816363zM0 684.576115v-805.96149a6.945041 6.945041 0 0 1 7.239679-6.608311H1119.203885a6.945041 6.945041 0 0 1 7.155497 6.608311V684.576115a6.945041 6.945041 0 0 1-7.155497 6.608311H7.239679A6.945041 6.945041 0 0 1 0 684.576115z m51.182848-44.574537h1023.993686v-716.770325H51.182848z"  horiz-adv-x="1126" />

    
    <glyph glyph-name="gonggao" unicode="&#58908;" d="M539.62482-127.602524a85.769359 85.769359 0 0 0-59.146604 27.843671l-233.127153 250.525208h-132.265915A92.11134 92.11134 0 0 0 24.635611 241.215893v285.389147a92.11134 92.11134 0 0 0 90.483451 90.483451h132.265915L480.512131 867.6137a76.23943 76.23943 0 0 0 83.497098 24.350494 74.136741 74.136741 0 0 0 52.194165-69.59222v-873.429839a74.136741 74.136741 0 0 0-52.329823-69.59222 29.369816 29.369816 0 0 0-24.248751-6.952439zM115.119062 547.462357a22.451291 22.451291 0 0 1-20.891232-20.891232v-285.355232a22.451291 22.451291 0 0 1 20.891232-20.891232h146.136879a31.574248 31.574248 0 0 0 24.350494-10.445616l247.065946-261.140396a3.391434 3.391434 0 0 1 3.391434-3.391434 12.141333 12.141333 0 0 1 6.952439-3.391433 3.391434 3.391434 0 0 1 3.391434 3.391433V822.371974a3.391434 3.391434 0 0 1-3.391434 3.391434c-3.391434 0-3.391434 0-6.952439-3.391434a3.391434 3.391434 0 0 0-3.391434-3.391434l-243.572769-261.140396a37.577086 37.577086 0 0 0-24.350494-10.445616zM685.795613-44.105426a33.439536 33.439536 0 0 0-31.302933 24.350494 36.186598 36.186598 0 0 0 20.891232 45.241726 375.296055 375.296055 0 0 1 254.018385 358.406715 382.858952 382.858952 0 0 1-257.511562 361.899892 35.236996 35.236996 0 1 0 24.350494 66.099043 453.909488 453.909488 0 0 0 0-856.031784zM685.795613 202.96052a33.439536 33.439536 0 0 0-31.302933 24.350494 36.186598 36.186598 0 0 0 20.891232 45.241726 122.396843 122.396843 0 0 1 0 229.667891 35.236996 35.236996 0 1 0 24.350494 66.099043 191.514262 191.514262 0 0 0 0-361.899891 26.283611 26.283611 0 0 0-13.938793-3.459263z"  horiz-adv-x="1024" />

    
    <glyph glyph-name="zhaobiaoguidang" unicode="&#58909;" d="M804.622259 457.283913h-292.7012v-72.987697h292.7012zM218.8644 238.044355h586.587264v73.027192H218.8644z m0-146.686311h586.587264v72.987696H218.8644zM0.217276 749.511166v-877.511166l1023.28908 0.473946V749.511166z m951.56524-805.392371H73.165476V676.760443h878.61704zM270.643009 432.915185h100.91102l19.747753-48.618969h39.298029l-88.86489 218.884098h-37.876191L215.3493 384.296216h35.940911z m49.84333 127.333513l42.734138-103.754696H279.568994z m630.506267 335.711806H72.849512v-73.106182h878.103599z"  horiz-adv-x="1024" />

    
    <glyph glyph-name="xinwen2" unicode="&#58910;" d="M949.680864 636.274428c0 0.732899 0 1.430899-0.1745 2.128898v0.5584c0 0.732899-0.2094 1.465799-0.348999 2.198698 0 0.732899-0.3141 1.500699-0.5235 2.233598v0.5235l-0.628199 2.024198a26.174977 26.174977 0 0 1-0.837599 2.093998l-0.2443 0.558399a29.036774 29.036774 0 0 1-0.872499 1.814799V650.653216l-1.1168 1.919498-0.314099 0.523499-1.186599 1.744999a36.330868 36.330868 0 0 1-1.430899 1.814798l-0.3839 0.4188a37.168467 37.168467 0 0 1-1.605398 1.710098L713.617472 885.18101a37.168467 37.168467 0 0 1-1.710099 1.605398L711.453674 887.170308a63.901844 63.901844 0 0 1-1.779899 1.430899h-0.1745l-1.710098 1.151698-0.5584 0.349-1.919498 1.116799h-0.2792l-1.779898 0.872499-0.5933 0.2443-2.059098 0.8027h-0.2094l-1.989298 0.628199h-0.558399l-2.198698 0.5235-2.163799 0.348999h-0.593299l-2.093998 0.1745H109.254703a34.899969 34.899969 0 0 1-34.899969-34.899969v-952.838963a34.899969 34.899969 0 0 1 34.899969-34.899969h805.421492a34.899969 34.899969 0 0 1 34.899969 34.899969V634.52943a4.955796 4.955796 0 0 1 0.1047 1.744998z m-226.431001 139.983777l106.654307-106.654306h-106.654307z m-579.025391-834.109267V825.851062h508.876453v-191.321632a34.899969 34.899969 0 0 1 34.899969-34.89997h191.321632v-657.480522zM254.822475 532.44702h225.523602a35.074469 35.074469 0 1 1 0 70.148938H254.787575a35.074469 35.074469 0 1 1 0-70.148938zM254.822475 348.768481h296.928939a35.074469 35.074469 0 1 1 0 70.148938H254.822475a35.074469 35.074469 0 1 1 0-70.148938zM702.554182 236.59998H254.822475a35.074469 35.074469 0 1 1 0-70.148939h447.731707a35.074469 35.074469 0 1 1 0 70.148939z"  horiz-adv-x="1024" />

    
    <glyph glyph-name="zhuanti" unicode="&#58911;" d="M104.72776 791.27224v-814.501612h1093.832796v814.501612zM46.555197 896h1210.177921a46.555197 46.555197 0 0 0 46.555198-46.555197V-81.401934a46.555197 46.555197 0 0 0-46.555198-46.555197H46.555197A46.555197 46.555197 0 0 0 0-81.401934V849.444803A46.555197 46.555197 0 0 0 46.555197 896z m151.282958-209.45552h349.078243a11.617365 11.617365 0 0 0 11.617365-11.617365v-69.832796a11.617365 11.617365 0 0 0-11.617365-11.617365H197.838155a11.617365 11.617365 0 0 0-11.617365 11.617365V674.927115a11.617365 11.617365 0 0 0 11.617365 11.617365z m0-325.800644h488.700967a11.617365 11.617365 0 0 0 11.617365-11.617366v-69.832796a11.617365 11.617365 0 0 0-11.617365-11.617365h-488.700967a11.617365 11.617365 0 0 0-11.617365 11.617365v69.832796a11.617365 11.617365 0 0 0 11.617365 11.617366z m0-186.177921h907.612006a11.617365 11.617365 0 0 0 11.617365-11.617366v-69.832796a11.617365 11.617365 0 0 0-11.617365-11.617365H197.838155a11.617365 11.617365 0 0 0-11.617365 11.617365V162.948549a11.617365 11.617365 0 0 0 11.617365 11.574497z m730.17926 162.900322a162.900322 162.900322 0 1 0 0 325.800645v-162.900323h162.900323a162.900322 162.900322 0 0 0-162.900323-162.900322z m189.09298 183.262863h-165.815381V686.54448a165.815381 165.815381 0 0 0 165.815381-165.81538zM197.838155 523.644158H407.250806a11.617365 11.617365 0 0 0 11.617365-11.617365v-69.832796a11.617365 11.617365 0 0 0-11.617365-11.617365H197.838155a11.617365 11.617365 0 0 0-11.617365 11.617365V512.026793a11.617365 11.617365 0 0 0 11.617365 11.617365z"  horiz-adv-x="1303" />

    
    <glyph glyph-name="xinwen3" unicode="&#58912;" d="M841.215348 887.397266h-60.96307a27.463561 27.463561 0 0 1 0-54.927122h60.96307a109.703346 109.703346 0 0 0 109.401548-109.665621v-686.249505a109.891969 109.891969 0 0 0-109.81652-109.665621H182.278506a109.74107 109.74107 0 0 0-109.665621 109.665621V722.804523a109.74107 109.74107 0 0 0 109.665621 109.665621h64.546913a27.463561 27.463561 0 0 1 0 54.927122H182.278506A164.856816 164.856816 0 0 1 17.685763 722.804523v-686.249505a164.856816 164.856816 0 0 1 164.592743-164.592743h658.785943a164.856816 164.856816 0 0 1 164.592743 164.592743V722.804523A164.89454 164.89454 0 0 1 841.215348 887.397266zM407.11755 813.079662h207.862941a41.798936 41.798936 0 1 1 0 82.239785h-207.862941a41.798936 41.798936 0 1 1 0-82.239785z m357.931686-260.90383H255.011673a8.186254 8.186254 0 0 0-8.186254 8.186254V604.839474a8.186254 8.186254 0 0 0 8.186254 8.186254H765.011511a8.186254 8.186254 0 0 0 8.186254-8.186254v-44.401939a8.186254 8.186254 0 0 0-8.186254-8.412601z m0-452.20564h-243.965453a8.186254 8.186254 0 0 0-8.186254 8.186253v44.401939a8.186254 8.186254 0 0 0 8.186254 8.186254h243.927728a8.186254 8.186254 0 0 0 8.186254-8.186254v-44.401939a8.299428 8.299428 0 0 0-8.186254-8.186253z m-322.281872 0h-183.719151a8.186254 8.186254 0 0 0-8.186254 8.186253v339.823844a8.186254 8.186254 0 0 0 8.186254 8.186254h183.719151a8.186254 8.186254 0 0 0 8.186254-8.186254v-339.823844a8.299428 8.299428 0 0 0-8.186254-8.186253z m322.281872 294.25244h-243.965453a8.186254 8.186254 0 0 0-8.186254 8.186253v44.401939a8.186254 8.186254 0 0 0 8.186254 8.186254h243.927728a8.186254 8.186254 0 0 0 8.186254-8.186254v-44.401939a8.186254 8.186254 0 0 0-8.186254-8.186253z m0-147.616641h-243.965453a8.186254 8.186254 0 0 0-8.186254 8.186254V299.269633a8.186254 8.186254 0 0 0 8.186254 8.186253h243.927728a8.186254 8.186254 0 0 0 8.186254-8.186253v-44.401939a8.186254 8.186254 0 0 0-8.186254-8.412602z"  horiz-adv-x="1024" />

    
    <glyph glyph-name="lianhe1-copy" unicode="&#58923;" d="M713.943716-118.46338100000003L267.718664 358.88505499999997a33.341203 33.341203 0 0 0-8.79734601 25.135275 33.489057 33.489057 0 0 0 8.72341901 25.209202L713.943716 886.504041a28.683784 28.683784 0 0 0 42.508186 0 33.784766 33.784766 0 0 0 0-45.465276l-427.225742-457.018435L756.451902-73.07203200000004a33.784766 33.784766 0 0 0 0-45.465276 28.683784 28.683784 0 0 0-42.508186 0z"  horiz-adv-x="1024" />

    
    <glyph glyph-name="lianhe1" unicode="&#58903;" d="M310.056284 886.463381L756.281336 409.114945a33.341203 33.341203 0 0 0 8.79734601-25.135275 33.489057 33.489057 0 0 0-8.72341901-25.209202L310.056284-118.50404100000003a28.683784 28.683784 0 0 0-42.508186 0 33.784766 33.784766 0 0 0 0 45.465276l427.225742 457.018435L267.548098 841.072032a33.784766 33.784766 0 0 0 0 45.465276 28.683784 28.683784 0 0 0 42.508186 0z"  horiz-adv-x="1024" />

    
    <glyph glyph-name="zanting" unicode="&#58902;" d="M290.13333333 742.4h85.33333334v-716.8h-85.33333334z m435.2 0h-68.26666666c-4.69333333 0-8.53333333-3.84-8.53333334-8.53333333v-699.73333334c0-4.69333333 3.84-8.53333333 8.53333334-8.53333333h68.26666666c4.69333333 0 8.53333333 3.84 8.53333334 8.53333333V733.86666667c0 4.69333333-3.84 8.53333333-8.53333334 8.53333333z"  horiz-adv-x="1024" />

    
    <glyph glyph-name="didian1" unicode="&#58886;" d="M511.98272 895.99744A382.655043 382.655043 0 0 1 181.167547 318.718883c38.015905-64.383839 311.87122-435.198912 311.87122-435.198912a21.439946 21.439946 0 0 1 37.951905 0s273.919315 371.199072 311.807221 435.198912A382.591044 382.591044 0 0 1 511.98272 895.99744z m0-511.166722a127.99968 127.99968 0 1 0 127.99968 127.99968 127.99968 127.99968 0 0 0-127.99968-127.87168z m0 0"  horiz-adv-x="1024" />

    
    <glyph glyph-name="xiaoyuan4" unicode="&#58887;" d="M896.469333 229.376h-89.344v207.445333a121.045333 121.045333 0 0 1-120.704 120.704h-149.333333V671.189333l153.088 101.717334L497.834667 896v-338.474667h-170.666667a121.045333 121.045333 0 0 1-120.704-120.704v-207.445333h-78.933333A121.045333 121.045333 0 0 1 6.826667 108.672V-128h381.184v276.48a121.045333 121.045333 0 0 0 120.704 120.704h12.330666a121.045333 121.045333 0 0 0 120.661334-120.704V-128h375.466666v236.672a121.045333 121.045333 0 0 1-120.704 120.704z"  horiz-adv-x="1024" />

    
    <glyph glyph-name="naozhong" unicode="&#58888;" d="M512 798.573714a457.435429 457.435429 0 0 0 325.412571-135.68 465.115429 465.115429 0 0 0 0-654.921143 458.166857 458.166857 0 0 0-650.971428 0 465.261714 465.261714 0 0 0 0 655.067429 458.971429 458.971429 0 0 0 314.514286 135.533714z m-24.283429-219.428571a47.542857 47.542857 0 0 1-48.420571-46.592v-223.085714a46.226286 46.226286 0 0 1 1.462857-11.483429 43.446857 43.446857 0 0 1 40.374857-35.84h231.350857A45.714286 45.714286 0 0 1 754.322286 310.857143a45.714286 45.714286 0 0 1-41.837715 48.859428h-176.274285V532.406857a47.396571 47.396571 0 0 1-44.470857 46.738286z m-189.147428 292.571428a48.932571 48.932571 0 0 0-17.846857-66.706285L113.152 707.584a48.420571 48.420571 0 0 0-66.267429 17.846857 48.932571 48.932571 0 0 0 17.846858 66.56L232.374857 889.417143a48.420571 48.420571 0 0 0 65.828572-17.554286z m426.642286 0a48.420571 48.420571 0 0 0 66.194285 17.554286l167.862857-97.28a48.932571 48.932571 0 0 0 17.700572-66.925714 48.420571 48.420571 0 0 0-65.828572-17.481143L743.131429 804.937143a48.932571 48.932571 0 0 0-17.92 66.779428z"  horiz-adv-x="1024" />

    
    <glyph glyph-name="xiaoyuan3" unicode="&#58889;" d="M263.858513 438.355742v-275.948533c335.855814-250.140041 649.011999 8.981158 649.011999 8.981158V449.754903l-327.81225-117.248518z m845.610525-334.474098c0 47.373139-23.686569 110.142547-55.663438 118.432847v374.050407L1184.328466 643.738037 584.564792 896 0 621.482531 584.564792 428.683726l443.629705 158.94675v-368.819624c-28.670618-10.412221-49.741796-71.059708-49.741796-115.817454a103.036577 103.036577 0 0 1 37.651776-85.518385l-12.09002-91.686762 28.423883 41.204761 11.349815-94.746277 17.074069 90.699822 45.695339-49.34702-31.730133 106.589562a106.342827 106.342827 0 0 1 34.542914 83.889933z"  horiz-adv-x="1184" />

    
    <glyph glyph-name="yanjiu" unicode="&#58890;" d="M958.210889 117.748976l-261.101941 263.661763a98.894493 98.894493 0 0 0-28.158052 69.11522V844.738692h63.95291a24.190327 24.190327 0 0 1 25.598229 25.59823 24.190327 24.190327 0 0 1-25.598229 25.598229h-94.713449c-15.358938 0-23.038407-10.239292-23.038407-25.598229v-419.810963a145.056634 145.056634 0 0 1 43.51699-104.952741l76.794689-76.794689a264.77102 264.77102 0 0 0-222.704596 12.799115 293.611692 293.611692 0 0 1-186.867075 23.038407l40.957167 40.957167a152.053483 152.053483 0 0 1 46.076813 104.952741V870.336922a26.323513 26.323513 0 0 1-28.158053 25.598229h-94.713449a24.190327 24.190327 0 0 1-25.598229-25.598229 24.190327 24.190327 0 0 1 25.598229-25.59823h71.675043v-394.212733a101.454316 101.454316 0 0 0-30.717876-69.11522l-263.661763-263.661763a137.54782 137.54782 0 0 1-30.717875-153.589377A147.744448 147.744448 0 0 1 174.862404-127.994027h673.233434a147.744448 147.744448 0 0 1 138.230439 92.153626 136.779873 136.779873 0 0 1-28.115388 153.589377z m-486.36636 514.524412z m-35.837521 0z m112.63221-127.991148z m-35.837522 0z m38.397344 250.862649z m-30.717875 0zM471.844529 893.375328z m-30.717875 0z"  horiz-adv-x="1024" />

    
    <glyph glyph-name="peiyang" unicode="&#58891;" d="M844.766347 802.220167c-32.157359 21.438239-125.887336-34.89946-131.271824-32.15736-69.798919 69.798919-66.957106 125.887336-123.244949 125.887337-48.211111 0-50.903355-32.157359-112.525829-109.684016-21.438239-29.465115-101.806709 34.89946-131.271824 16.053751-56.237986-42.876479-58.93023-152.710064-58.930231-152.710064a301.282049 301.282049 0 0 1 268.077706-305.469983h77.676226c0 2.692244-2.692244 2.692244-5.334632 5.334631l5.334632-5.334631a299.138225 299.138225 0 0 1 251.824529 305.370271c2.692244-2.692244-8.026876 128.57958-40.184235 152.710064z m-219.66717-407.176981h-61.622474A235.770778 235.770778 0 0 0 354.528653 630.764107a145.082039 145.082039 0 0 0 45.518866 104.698379c21.438239 16.053751 85.703101-34.89946 101.80671-10.71912 48.211111 61.622474 48.211111 85.703101 85.703101 85.703102 42.876479 0 40.184235-42.876479 93.779833-99.114465 2.692244-2.692244 83.060714 40.184235 107.141341 24.130483 26.772871-18.745995 29.465115-104.698379 29.465115-104.698379a229.339306 229.339306 0 0 0-192.894298-235.720921zM421.485759-127.302011s-203.563562 257.159161-284.181314 297.343396c-16.053751 8.026876-66.957106 123.244949-96.422221 158.044695S-20.490968 603.991236 17.150592 617.4026s61.622474-69.798919 61.622474-141.990944 122.846098-230.386289 187.360241-225.001802-147.325576 139.2987-93.779833 195.536687 147.325576-125.887336 243.648084-166.071571c77.676226-32.157359 187.509811-219.66717 141.990944-404.484737z m353.581382 0s203.563562 257.159161 284.181313 297.343396c16.053751 8.026876 66.957106 123.244949 96.422221 158.044695s61.622474 275.905156 24.130484 289.166951-61.622474-69.798919-61.622475-141.990944-123.244949-230.386289-187.50981-225.001802 147.325576 139.2987 93.779833 195.536687-147.325576-125.887336-243.747797-166.071572c-77.676226-32.157359-187.509811-219.66717-141.990944-404.484736l136.606456-2.692244z"  horiz-adv-x="1197" />

    
    <glyph glyph-name="xiaoyuan5" unicode="&#58893;" d="M434.766174 87.717723v-31.999267h154.449794v31.999267h-26.538059v322.083286h26.538059v31.999266h-154.449794v-31.999266h26.538058v-322.083286zM141.140903 87.717723v-31.999267h154.449793v31.999267h-26.538058v322.083286h26.538058v31.999266h-154.449793v-31.999266h26.538058v-322.083286zM728.348779 87.717723v-31.999267h154.449794v31.999267h-26.538059v322.083286h26.538059v31.999266h-154.449794v-31.999266h26.538059v-322.083286zM67.92658-5.634804v-13.354361a19.327557 19.327557 0 0 1 18.047587-20.351533h852.033807a19.327557 19.327557 0 0 1 18.047587 20.351533v13.354361a19.327557 19.327557 0 0 1-18.047587 20.351533H85.974167a19.327557 19.327557 0 0 1-18.047587-20.351533zM1004.566449-73.899906H19.501023a19.327557 19.327557 0 0 1-18.047586-20.351534v-13.525023a19.327557 19.327557 0 0 1 18.047586-20.351534h985.065426a19.327557 19.327557 0 0 1 18.047586 20.351534v13.35436a19.327557 19.327557 0 0 1-18.047586 20.522197zM54.401557 479.047422h915.179027a19.156894 19.156894 0 0 1 17.876924 14.634331 22.740812 22.740812 0 0 1-6.82651 23.679457L522.956153 891.965959a17.066276 17.066276 0 0 1-22.058162 0L43.393809 517.403876a22.740812 22.740812 0 0 1-6.82651-23.679457 19.156894 19.156894 0 0 1 17.834258-14.676997z m457.589514 271.225784a77.992879 77.992879 0 0 0 72.915662-82.216782 77.992879 77.992879 0 0 0-72.915662-82.216783 77.992879 77.992879 0 0 0-72.915663 82.216783 77.992879 77.992879 0 0 0 72.915663 82.216782z"  horiz-adv-x="1024" />

    
    <glyph glyph-name="duobianxing2" unicode="&#58880;" d="M175.89578436 802.57287265l706.73128-423.718618-693.124902-400.187588z"  horiz-adv-x="1053" />

    
    <glyph glyph-name="duobianxing1" unicode="&#58881;" d="M222.7602266 683.94203438l6.95978605-618.87719743 525.51819689 303.40315971-532.47798294 315.47403772M111.8386412 876.04299502l858.77231282-508.71683817-847.571407-489.35993464L111.8386412 876.04299502z"  horiz-adv-x="1056" />

    
    <glyph glyph-name="faxinxiang" unicode="&#58882;" d="M998.922505 84.420871L1248.653131 896 0 459.01681l374.550534-137.39725v68.698625L181.032001 459.01681 1148.76088 796.10775l-193.609343-630.501723-393.303034 156.013533 268.437721 181.032001a31.239031 31.239031 0 0 1-37.459594 49.946125l-374.550534-249.730626a47.312602 47.312602 0 0 1-12.486531-24.973062v-374.550534a22.929812 22.929812 0 0 1 6.220563-18.707094 32.419576 32.419576 0 0 1 24.973062-12.486532 22.929812 22.929812 0 0 1 18.707094 6.220563l249.730627 187.29797a31.239031 31.239031 0 1 1-37.459594 49.946125l-199.784501-149.838376v293.456189l31.284436 18.707094v-6.265968l499.461253-187.29797z"  horiz-adv-x="1248" />

    
    <glyph glyph-name="fangdajing" unicode="&#58883;" d="M998.093807-90.563782l-24.018361-24.018361a46.775758 46.775758 0 0 0-65.570125 0L741.75785 58.350056a485.591212 485.591212 0 0 0-274.169589-89.408349A464.334962 464.334962 0 0 0 8.597384 433.997221a464.935421 464.935421 0 0 0 929.870842-6.004591 469.739094 469.739094 0 0 0-101.357483-292.063268l166.927608-166.927609a46.235345 46.235345 0 0 0-6.00459-59.625581zM473.532805 773.796982a344.783571 344.783571 0 0 1-345.744305-339.739716 345.804351 345.804351 0 0 1 691.428564 0 348.7466 348.7466 0 0 1-345.744305 339.739716z m0 0"  horiz-adv-x="1024" />

    
    <glyph glyph-name="chengji" unicode="&#58884;" d="M922.102728 896H101.897644A53.583108 53.583108 0 0 1 48.165591 842.267947v-916.498285a53.583108 53.583108 0 0 1 53.732053-53.732053H922.102728a53.583108 53.583108 0 0 1 53.545871 53.732053V842.789256A53.471399 53.471399 0 0 1 922.102728 896z m-23.942973-964.421467H126.361926a18.841593 18.841593 0 0 0-18.618175 18.618175V818.324974a18.841593 18.841593 0 0 0 18.618175 18.618175h771.797829a18.841593 18.841593 0 0 0 18.618175-18.618175v-868.575103a18.394757 18.394757 0 0 0-18.618175-18.096866zM602.428662 523.673735h35.635187V595.502655h72.350229v36.156496h-72.350229V703.450834h-35.635187v-71.791683h-71.828919v-36.156496h71.791683zM305.096407 454.004524h129.247371l33.512715-89.888549h57.976997L396.548883 703.450834H343.896684l-129.247371-338.850786h58.498306z m64.344413 179.25579c0-0.521309 0.521309-1.601163 0.521309-2.122472l46.806092-129.247371H322.113419S368.919511 632.739005 369.44082 633.260314z m407.961452-210.087488h-193.070476a29.267771 29.267771 0 0 1 0-58.498306h193.070476a29.528426 29.528426 0 0 1 29.267771 29.267772 29.156062 29.156062 0 0 1-29.267771 29.193298z m0-298.933418H246.560865a29.267771 29.267771 0 1 1 0-58.498306h530.841407a29.267771 29.267771 0 1 1 0 58.498306z m0 144.66322H246.560865a29.267771 29.267771 0 1 1 0-58.498306h530.841407a29.267771 29.267771 0 1 1 0 58.498306z"  horiz-adv-x="1024" />

    
    <glyph glyph-name="ketang" unicode="&#58885;" d="M1244.812549-127.949804H136.583529a137.185882 137.185882 0 0 0-136.633725 136.583529V759.366275A137.185882 137.185882 0 0 0 136.583529 896h1107.124706a137.185882 137.185882 0 0 0 136.633726-136.633725v-750.73255a135.027451 135.027451 0 0 0-135.529412-136.583529zM136.583529 813.82902a54.814118 54.814118 0 0 1-54.412549-54.462745v-750.73255a54.814118 54.814118 0 0 1 54.412549-54.412549h1107.124706a54.814118 54.814118 0 0 1 54.412549 54.412549V759.366275a54.814118 54.814118 0 0 1-54.412549 54.412549H136.583529zM603.858824 265.386667a68.166275 68.166275 0 0 0-67.764706 68.818823V598.136471a67.664314 67.664314 0 0 0 33.882353 59.582745 68.668235 68.668235 0 0 0 68.818823 0l229.044706-132.467451a69.270588 69.270588 0 0 0 0-119.115294l-229.044706-131.46353a71.077647 71.077647 0 0 0-34.93647-9.286274z m14.356078 309.107451v-217.901177l187.934118 108.875294-187.883922 109.076079zM1180.009412 71.278431H201.286275a41.110588 41.110588 0 1 0 0 82.170981h977.719215a41.21098 41.21098 0 0 0 41.060392-41.060392 40.156863 40.156863 0 0 0-40.05647-41.110589z"  horiz-adv-x="1380" />

    
    <glyph glyph-name="riqi" unicode="&#58892;" d="M109.662472 566.927244h804.589716V676.589716a36.52571 36.52571 0 0 1-36.525711 36.52571h-18.262855a54.959247 54.959247 0 0 0 0 109.833153h18.262855A146.358863 146.358863 0 0 0 1024.08534 676.589716v-657.889491a146.358863 146.358863 0 0 0-146.358863-146.358863H146.188182A146.273523 146.273523 0 0 0 0 18.529544V676.589716A146.358863 146.358863 0 0 0 146.273523 822.948579h18.262855a54.959247 54.959247 0 0 0 0-109.833153h-18.262855a36.52571 36.52571 0 0 1-36.525711-36.52571v-109.662472z m0-109.833153v-438.905909a36.52571 36.52571 0 0 1 36.52571-36.52571h731.538295a36.52571 36.52571 0 0 1 36.525711 36.52571V457.094091z m457.168764 256.021335H457.083424a54.959247 54.959247 0 0 0 0 109.833153h109.662471a54.959247 54.959247 0 0 0 0-109.833153zM310.809901 896a54.959247 54.959247 0 0 0 54.873906-54.873906v-146.273523a54.959247 54.959247 0 1 0-109.833153 0V841.211434A54.959247 54.959247 0 0 0 310.72456 896z m420.643053-588.849071a54.959247 54.959247 0 0 0-54.873906-54.873906H347.420952a54.959247 54.959247 0 0 0 0 109.833153h329.158096a54.959247 54.959247 0 0 0 54.788566-54.873906z m0-182.884573a54.959247 54.959247 0 0 0-54.873906-54.873907H347.420952a54.959247 54.959247 0 1 0 0 109.833153h329.158096a54.959247 54.959247 0 0 0 54.788566-54.788566zM713.104759 896a54.959247 54.959247 0 0 0 54.873906-54.873906v-146.273523a54.959247 54.959247 0 1 0-109.833153 0V841.211434A54.788566 54.788566 0 0 0 713.104759 896z"  horiz-adv-x="1024" />

    
    <glyph glyph-name="xinxiang" unicode="&#58894;" d="M1234.470983 36.486537a88.23324 88.23324 0 0 0-86.807057-89.374188H159.841457a88.28078 88.28078 0 0 0-86.807057 89.374188V731.275766A88.23324 88.23324 0 0 0 159.841457 820.887651h987.537233a88.28078 88.28078 0 0 0 86.854596-89.374188v-695.026926zM1147.663926 896H159.841457A162.3948 162.3948 0 0 1 0.013787 731.513463v-695.026926a162.44234 162.44234 0 0 1 159.82767-164.486537h987.537233a162.347261 162.347261 0 0 1 159.970287 164.486537V731.275766A162.204643 162.204643 0 0 1 1147.663926 896zM818.643314 421.603714l307.485236 295.505292a39.69545 39.69545 0 0 1 2.614671 53.149118 33.705478 33.705478 0 0 1-49.678738 2.852368l-424.051996-407.7935-82.718663 79.105664a53.244197 53.244197 0 0 1-6.275209 6.13259l-336.579387 322.507707a33.277623 33.277623 0 0 1-49.678737-3.090065 39.457753 39.457753 0 0 1 2.852368-53.149118l311.098235-297.787187-309.81467-310.432683a39.69545 39.69545 0 0 1-1.616342-53.196658 34.893965 34.893965 0 0 1 25.766388-11.932404 33.848097 33.848097 0 0 1 23.769731 10.030826l314.521077 315.044011 85.571031-81.625255a33.277623 33.277623 0 0 1 46.77883 0.285236l87.662767 84.144847 312.714577-318.134076a33.657939 33.657939 0 0 1 49.678738 1.426184 39.69545 39.69545 0 0 1-1.426184 52.95896l-309.0065 313.760446z"  horiz-adv-x="1307" />

    
    <glyph glyph-name="zu14" unicode="&#58895;" d="M0 512h1024v-256H0zM640 896v-1024H384V896z"  horiz-adv-x="1024" />

    
    <glyph glyph-name="ziyuan65" unicode="&#58896;" d="M1213.583865 896H0v-910.143768h113.767971v-75.860024a37.907947 37.907947 0 0 1 75.860024 0v75.860024H1023.823479v-75.860024a37.907947 37.907947 0 0 1 75.860024 0v75.860024H1213.583865zM75.860024 820.139976H1137.67971v-37.907947h-197.21841a37.907947 37.907947 0 0 1 0-75.860024h197.21841v-50.794001H75.860024z m0-240.421996H1137.67971v-100.881917h-197.21841a37.907947 37.907947 0 0 1 0-75.860024h197.21841v-87.201517H75.860024z m0-518.001724v178.242372H1137.67971v-64.474401h-197.21841a37.907947 37.907947 0 0 1 0-75.860024h197.21841v-37.907947z"  horiz-adv-x="1213" />

    
    <glyph glyph-name="zu58" unicode="&#58897;" d="M585.124594 91.501623L1389.622971 896l219.373783-219.501623-804.498377-804.370537zM804.498377-127.87216L0 676.626217 219.501623 896l804.370537-804.498377z"  horiz-adv-x="1609" />

    
    <glyph glyph-name="tushuguan" unicode="&#58898;" d="M485.025506-124.792928a47.95516 47.95516 0 0 1 48.03062 48.558844V844.271059A48.558844 48.558844 0 0 1 485.025506 892.867634H338.783019A48.068351 48.068351 0 0 1 290.752399 844.271059v-920.618334a48.445653 48.445653 0 0 1 48.03062-48.558844h146.242487zM339.122592 844.195599c0 0.377303 145.487881 0 145.487881 0l-0.339573-920.618334H338.783019l0.339573 920.618334zM860.63024-126.377599l141.299822 37.73026a48.068351 48.068351 0 0 1 33.957234 59.349698L797.507516 859.929117a48.483384 48.483384 0 0 1-58.972396 34.485457l-141.299822-37.730259a48.068351 48.068351 0 0 1-33.957234-59.349698l238.228859-889.113568a48.634305 48.634305 0 0 1 59.123317-34.598648zM750.835184 847.440401c-0.377303 0 237.927017-889.189028 237.927017-889.189028l-140.469756-37.730259-238.115668 889.151297 140.469756 37.73026zM194.276125-124.792928a48.03062 48.03062 0 0 1 48.030621 48.596574V844.271059A48.558844 48.558844 0 0 1 194.276125 892.867634H48.033639A48.068351 48.068351 0 0 1 0.003019 844.271059v-920.618334a48.445653 48.445653 0 0 1 48.03062-48.558844h146.242486zM48.373211 844.195599c0 0.377303 145.487881 0 145.487881 0l-0.339572-920.618334H48.033639l0.339572 920.618334z"  horiz-adv-x="1037" />

    
    <glyph glyph-name="zhihuihua" unicode="&#58899;" d="M795.381184 71.991205a78.806345 78.806345 0 0 1-71.971101-51.787027h-110.690749a23.159416 23.159416 0 1 1 0-46.278624h107.393749a77.68054 77.68054 0 1 1 75.268101 98.065651z m12.826135-110.69075a33.653526 33.653526 0 1 0 19.420135 37.3526 33.412282 33.412282 0 0 0-19.420135-37.392807z m145.0278 267.459086a78.163028 78.163028 0 0 1-59.98932-28.145123 17.490184 17.490184 0 0 1-5.749647 2.894927l-57.576881 16.806659a20.385111 20.385111 0 0 1-6.433171 0H613.161615a23.159416 23.159416 0 0 1 0-46.278624h207.228522l54.480917-15.721061a66.422491 66.422491 0 0 1 0-9.287891 79.047589 79.047589 0 1 1 78.364065 79.93215z m12.826134-110.690749a33.412282 33.412282 0 1 0 21.510916 37.835087 33.412282 33.412282 0 0 0-21.510916-37.875294zM613.161615 756.963091h107.232919a79.48987 79.48987 0 1 1 2.894927 46.278624h-110.570127a23.159416 23.159416 0 0 1 0-46.278624z m151.46097 31.482331a33.211245 33.211245 0 0 0 54.681954 10.855976 32.768965 32.768965 0 0 0 9.649757-23.521282 33.211245 33.211245 0 0 0-20.586148-30.999843 32.768965 32.768965 0 0 0-36.186587 7.317732 33.653526 33.653526 0 0 0-7.558976 36.347417z m263.639391-325.679284a78.806345 78.806345 0 0 1-76.152662-56.893356h-169.152191a22.154233 22.154233 0 0 1-22.154233-11.057013 23.682111 23.682111 0 0 1 0-24.124392 22.154233 22.154233 0 0 1 22.154233-11.057012h169.152191a78.926967 78.926967 0 1 1 74.82582 102.287419z m0-112.580493a33.653526 33.653526 0 0 0-29.230721 50.460185 32.768965 32.768965 0 0 0 29.230721 16.605623 33.653526 33.653526 0 0 0 0-66.422491zM613.161615 405.832574a23.159416 23.159416 0 0 1 0-46.278624h81.460028a23.159416 23.159416 0 1 1 0 46.278624z m-192.392022 77.720748a22.837757 22.837757 0 0 1-31.64316-25.008953 52.711795 52.711795 0 0 0-18.817025-44.22805 73.94126 73.94126 0 0 0-63.085284-19.50055 23.119208 23.119208 0 1 1-9.529134-45.152819 101.161615 101.161615 0 0 1 22.154233-2.211403 122.431286 122.431286 0 0 1 82.585833 32.768965 98.507932 98.507932 0 0 1 32.768965 84.797236 22.154233 22.154233 0 0 1-14.39422 18.615988zM432.51013 879.79645a168.468667 168.468667 0 0 1-184.430972-36.749489 170.921313 170.921313 0 0 1-48.73127-114.992932 174.660594 174.660594 0 0 1-120.219884-199.267473 175.143082 175.143082 0 0 1 2.894927-293.79488 174.459557 174.459557 0 0 1 117.324957-212.093608 173.333752 173.333752 0 0 1 8.041463-36.186587 169.152191 169.152191 0 0 1 328.73504 57.818125V722.626041A170.036752 170.036752 0 0 1 432.51013 879.79645z m58.461442-564.993246a93.200565 93.200565 0 0 1-16.364379 4.664049 23.601696 23.601696 0 0 1-8.041463-46.479661c3.095964 0 22.154233-6.433171 22.154232-15.479818a22.154233 22.154233 0 0 1 1.769122-8.041463v-205.901681a123.758128 123.758128 0 0 0-91.672687-118.450762 122.431286 122.431286 0 0 0-138.353385 58.019162 124.200408 124.200408 0 0 0 20.10366 149.651641 122.67253 122.67253 0 0 0 149.008324 18.817025 22.154233 22.154233 0 0 1 31.64316 8.041464 23.481074 23.481074 0 0 1-8.041464 31.64316A168.87074 168.87074 0 0 1 200.554107 71.749961a129.306738 129.306738 0 0 0 4.664049 240.439767 22.154233 22.154233 0 0 1 7.760013 40.207319 22.154233 22.154233 0 0 1-23.481075 3.337208 173.333752 173.333752 0 0 1-90.627297-76.79598 128.663421 128.663421 0 0 0-5.99089 204.333596 174.700801 174.700801 0 0 1 23.682111-36.548453 22.154233 22.154233 0 0 1 17.490184-8.041464 22.154233 22.154233 0 1 1 17.490183 38.317575 129.306738 129.306738 0 0 0 52.269515 204.132558 183.747448 183.747448 0 0 1 7.518769-23.682111 169.353228 169.353228 0 0 1 156.527092-104.941102 23.159416 23.159416 0 0 1 0 46.278624 123.758128 123.758128 0 1 0 123.114811 123.758128z m122.190043 216.757657h182.621642a33.211245 33.211245 0 0 1 6.433171 1.326841l68.352443 19.50055a79.248626 79.248626 0 1 1-26.134758 58.903722 94.32637 94.32637 0 0 1 2.010366-17.731427l-53.596356-15.721062H613.161615a23.159416 23.159416 0 1 1 0-46.278624z m309.958222 113.344432a26.938904 26.938904 0 1 0 0 0.241244z"  horiz-adv-x="1107" />

    
    <glyph glyph-name="zhifu1" unicode="&#58900;" d="M1031.230747 544.629516c0.24544 0 9.981244-1.349922 4.540648-0.24544 2.045337-0.449974 3.845234-1.145389 5.890571-1.595363 7.240493-1.595363-2.495311 2.045337 4.090674-1.595363 1.799897-0.899948 3.395259-2.045337 5.195156-2.945285 6.340545-3.845234-1.799897 2.699845 3.395259-2.699845 1.349922-1.595363 2.699845-2.699845 4.090674-4.295207-2.945285 3.395259 0.899948-1.349922 1.595363-2.249871s4.540648-9.28583 2.945285-4.990622a32.479951 32.479951 0 0 0 2.495311-15.871815v-521.479114c0-1.799897-1.145389-12.272022-0.449974-7.935908a76.168349 76.168349 0 0 0-4.090674-14.480986c1.595363 4.090674-0.24544-0.449974-0.695414-1.145388-1.799897-2.945285-3.395259-6.095104-5.195156-8.835856-2.945285-4.295208 4.540648 4.540648-1.595363-2.249871-1.595363-1.799897-3.395259-3.6407-4.990622-5.440596s-3.6407-3.395259-5.440597-4.990622c3.395259 2.699845-0.449974-0.24544-1.145388-0.449974a125.82913 125.82913 0 0 1-7.690467-4.540648c-4.745182-2.699845-2.495311-1.145389-1.145389-0.695415a54.365057 54.365057 0 0 0-8.590415-2.699845c-0.899948-0.24544-9.28583-2.045337-4.090674-1.145389a373.11037 373.11037 0 0 0-52.769694-0.449974H324.607731c-68.396068 0-137.037577-0.24544-205.433646 0h-3.6407a66.923426 66.923426 0 0 0-9.53127 0.449974c4.990622-0.695415-1.349922 0.449974-2.699845 0.899949l-7.240493 2.045337a55.919513 55.919513 0 0 0-35.343422 55.469538V674.18116a67.659747 67.659747 0 0 0 4.540648 31.702723c-2.045337-5.195156 2.045337 3.6407 2.045337 3.6407a37.225133 37.225133 0 0 0 3.190725 4.990622c4.090674 7.240493-3.190726-2.699845 2.495311 3.39526 1.349922 1.349922 2.699845 2.945285 4.090674 4.295207s3.6407 3.395259 5.440597 4.990622c4.090674 3.190726-5.440596-2.945285 2.24987 1.595363 2.045337 1.145389 4.295208 2.495311 6.340545 3.845234l4.090674 2.045337c-2.495311-1.145389-2.249871-0.899948 1.145389 0.449974 2.045337 0.695415 3.845234 1.145389 5.89057 1.799896 0.24544 0 9.981244 2.045337 4.090674 1.145389a66.882519 66.882519 0 0 0 9.53127 0.449974h202.038386a29.902827 29.902827 0 0 1 0 59.805653H176.934401c-19.921582 0-39.843164 0.24544-59.805653 0A115.684259 115.684259 0 0 1 14.534646 737.177539a197.375018 197.375018 0 0 1-13.376504-95.108169v-653.689696a116.011513 116.011513 0 0 1 40.088605-88.767625 118.629544 118.629544 0 0 1 77.109203-27.489329h887.676246a116.461487 116.461487 0 0 1 118.629544 115.357005c1.145389 89.70848 0 179.621493 0 269.289066 0 84.717857 1.799897 169.640248 0 254.562639a95.639957 95.639957 0 0 1-93.758247 94.085501 30.311894 30.311894 0 0 1-29.902826-29.902826 31.007308 31.007308 0 0 1 30.23008-30.884589zM335.488923 642.723878q113.475295 67.25068 226.70515 134.542265c28.634718 16.976297 56.614927 34.198034 85.372365 50.724357a66.473452 66.473452 0 0 0 42.583916 7.240493c-4.540648 0.695415 0.449974-0.24544 1.145389-0.449974 2.945285-0.695415 5.89057-1.349922 8.835855-2.249871l5.645131-2.045337c-4.090674 1.799897 0.449974-0.449974 1.145388-0.695414 2.495311-1.595363 5.195156-2.945285 7.690467-4.540648 0.449974-0.449974 4.295208-3.395259 1.145389-0.695415a61.687363 61.687363 0 0 0 5.64513-5.195156c0.899948-0.899948 6.585985-7.690467 4.090674-4.540648 8.835856-12.272022 15.380934-26.507567 22.866867-39.39319 24.544044-43.238424 49.374434-86.763194 74.041199-130.001618a29.902827 29.902827 0 0 1 51.624305 30.107361l-67.25068 118.220476c-8.590415 15.1764-16.976297 30.557334-26.057593 45.529201A117.729596 117.729596 0 0 1 667.692554 895.24118a286.347176 286.347176 0 0 1-110.979984-50.969797q-75.432028-44.997413-150.823148-89.463039c-33.74806-19.921582-67.25068-39.843164-100.99874-59.805654a30.311894 30.311894 0 0 1 30.598241-52.278812zM1029.839918 604.639703H115.737919a53.792362 53.792362 0 0 0-44.629253 21.516945 52.646974 52.646974 0 0 0-10.635752 32.725392 29.902827 29.902827 0 0 1-59.805653 0 115.602446 115.602446 0 0 1 115.970606-113.92527h782.750459c42.788449 0 85.904153-1.349922 128.406255 0h1.799897a29.902827 29.902827 0 0 1 0.24544 59.682933z m-128.406255 133.192344c12.272022 0.449974 24.912204 1.145389 37.593294 0.449974 0.899948 0 6.585985 0.24544 7.035959-0.449974-5.195156 0.695415-6.340545 0.899948-3.395259 0.449974l2.699844-0.695415c6.790519-2.699845-5.440596 3.190726-1.349922 0.899949 5.440596-2.945285-3.6407 3.190726-2.045337 1.799896 4.090674-3.845234-4.295208 6.095104-1.595363 2.045337 3.395259-5.440596-0.695415 5.64513-0.449974 1.349922a22.989588 22.989588 0 0 1 1.349922-5.64513c1.799897-4.990622-0.449974 7.690467 0 0.245441 0.695415-13.131063 0.899948-26.057593 0.899949-39.188657a29.902827 29.902827 0 0 1 59.805653 0c0 26.957541 3.6407 62.750938-17.671712 83.327029s-55.714979 16.076349-82.67252 15.1764a30.475521 30.475521 0 0 1-29.902827-29.902827 29.821013 29.821013 0 0 1 29.657386-29.902826zM217.432073 235.251846h222.164502a27.202982 27.202982 0 0 1 0 54.365057H217.432073a27.202982 27.202982 0 0 1 0-54.365057z m0-78.131872h222.164502a27.202982 27.202982 0 0 1 0 54.365056H217.432073a27.202982 27.202982 0 0 1 0-54.365056zM355.615039 72.892997v197.497738a27.202982 27.202982 0 0 1-54.365057 0v-197.497738a27.202982 27.202982 0 0 1 54.365057 0zM354.060583 256.809698c24.544044 38.943216 48.67902 77.722805 73.14125 117.075088 18.57166 29.657386-28.307464 57.269435-46.879123 27.407515-24.544044-38.943216-48.67902-77.722805-73.14125-117.075088-18.57166-29.698293 28.511997-56.983088 46.879123-27.407515zM352.056153 285.321695l-76.086536 115.070658a27.775676 27.775676 0 0 1-37.143319 9.735804 27.325702 27.325702 0 0 1-9.735804-37.143319l76.086535-115.070658a27.775676 27.775676 0 0 1 37.14332-9.735804 27.448422 27.448422 0 0 1 9.735804 37.143319z m310.073085-238.036317h279.924817a29.902827 29.902827 0 0 1 0 59.805653h-279.965724a29.902827 29.902827 0 0 1 0-59.642026z"  horiz-adv-x="1125" />

    
    <glyph glyph-name="zu57" unicode="&#58901;" d="M804.498377 896l804.498377-804.498377-219.501623-219.373783-804.370537 804.498377zM1023.87216 676.626217L219.373783-127.87216 0 91.629463 804.498377 896z"  horiz-adv-x="1609" />

    


  </font>
</defs>
</svg>
